<svg width="226" height="45" viewBox="0 0 226 45" fill="none" xmlns="http://www.w3.org/2000/svg">
<path d="M33.9105 39.7573H8.41095L8.42708 39.7174L5.81538 37.5728V29.2718L0.102027 25.7767L0.102021 39.7573L2.9587 42.3786L6.29149 45H36.2866V44.9828L38.9653 42.3761L41.9888 39.7573H42V24.0291H41.8533L41.9315 23.924L26.9943 14.4762L27.0024 14.4646L26.9381 14.4407L26.9015 14.4175L26.8959 14.4249L26.2883 14.199H14.8615L23.6696 19.2233L23.6878 19.1974L36.2866 27.091V37.7705L33.9061 39.7476L33.9105 39.7573Z" fill="#F8726C"/>
<path d="M0.102021 6.11651L6.29149 0H36.5462L42 5.62986V15.7282L42 19.8786L38.9053 17.9126L35.8105 15.7282V8.05896L35.5725 7.20874L34.3227 6.5534H7.78831L5.81538 8.75452V18.4231L17.4715 25.7957L17.4802 25.7767L26.2883 31.1762H19.3846L15.0996 31.0194L0 21.5589L0.113543 21.4078H0.102021L0.102021 6.11651Z" fill="#F8726C"/>
<path d="M56.9775 24.4082C56.4033 24.4082 55.8564 24.2988 55.3369 24.0801C54.8311 23.8477 54.3867 23.5469 54.0039 23.1777C53.6211 22.7949 53.3203 22.3506 53.1016 21.8447C52.8828 21.3252 52.7734 20.7783 52.7734 20.2041V11.7959C52.7734 11.2217 52.8828 10.6816 53.1016 10.1758C53.3203 9.65625 53.6211 9.21191 54.0039 8.84277C54.3867 8.45996 54.8311 8.15918 55.3369 7.94043C55.8564 7.70801 56.4033 7.5918 56.9775 7.5918H71.251C71.8252 7.5918 72.3652 7.70801 72.8711 7.94043C73.3906 8.15918 73.8418 8.45996 74.2246 8.84277C74.6074 9.21191 74.9082 9.65625 75.127 10.1758C75.3457 10.6816 75.4551 11.2217 75.4551 11.7959V15.5898H71.251V11.7959H56.9775V20.2041H71.251C71.8252 20.2041 72.3652 20.3135 72.8711 20.5322C73.3906 20.751 73.8418 21.0518 74.2246 21.4346C74.6074 21.8174 74.9082 22.2686 75.127 22.7881C75.3457 23.2939 75.4551 23.834 75.4551 24.4082V32.7959C75.4551 33.3701 75.3457 33.917 75.127 34.4365C74.9082 34.9424 74.6074 35.3867 74.2246 35.7695C73.8418 36.1523 73.3906 36.4531 72.8711 36.6719C72.3652 36.8906 71.8252 37 71.251 37H56.5674C55.9932 37 55.4463 36.8906 54.9268 36.6719C54.4209 36.4531 53.9766 36.1523 53.5938 35.7695C53.2109 35.3867 52.9102 34.9424 52.6914 34.4365C52.4727 33.917 52.3633 33.3701 52.3633 32.7959V29.0225H56.5674V32.7959H71.251V24.4082H56.9775ZM101.951 37H97.9111V19.1992H86.6523V37H82.6328V6.75098H86.6523V19.0146C86.6797 18.4814 86.8027 17.9824 87.0215 17.5176C87.2402 17.0391 87.5273 16.6289 87.8828 16.2871C88.252 15.9316 88.6758 15.6582 89.1543 15.4668C89.6328 15.2617 90.1455 15.1592 90.6924 15.1592H97.9111C98.4717 15.1592 98.998 15.2686 99.4902 15.4873C99.9824 15.6924 100.406 15.9795 100.762 16.3486C101.131 16.7041 101.418 17.1279 101.623 17.6201C101.842 18.1123 101.951 18.6387 101.951 19.1992V37ZM127.565 32.96C127.565 33.5205 127.456 34.0469 127.237 34.5391C127.032 35.0312 126.745 35.4619 126.376 35.8311C126.021 36.1865 125.597 36.4736 125.104 36.6924C124.626 36.8975 124.106 37 123.546 37H112.697C112.15 37 111.631 36.8975 111.139 36.6924C110.646 36.4736 110.216 36.1865 109.847 35.8311C109.491 35.4619 109.204 35.0312 108.985 34.5391C108.78 34.0469 108.678 33.5205 108.678 32.96V19.1992C108.678 18.6387 108.78 18.1123 108.985 17.6201C109.204 17.1279 109.491 16.7041 109.847 16.3486C110.216 15.9795 110.646 15.6924 111.139 15.4873C111.631 15.2686 112.15 15.1592 112.697 15.1592H123.546C124.106 15.1592 124.626 15.2686 125.104 15.4873C125.597 15.6924 126.021 15.9795 126.376 16.3486C126.745 16.7041 127.032 17.1279 127.237 17.6201C127.456 18.1123 127.565 18.6387 127.565 19.1992V32.96ZM112.697 19.1992V32.96H123.546V19.1992H112.697ZM138.332 19.1992V37H134.312V15.1592H138.332V19.0146C138.359 18.4814 138.482 17.9824 138.701 17.5176C138.92 17.0391 139.207 16.6289 139.562 16.2871C139.932 15.9316 140.355 15.6582 140.834 15.4668C141.312 15.2617 141.825 15.1592 142.372 15.1592H146.658C147.219 15.1592 147.738 15.2686 148.217 15.4873C148.709 15.6924 149.14 15.9795 149.509 16.3486C149.878 16.7041 150.165 17.1279 150.37 17.6201C150.589 18.1123 150.698 18.6387 150.698 19.1992V22.8906H146.658V19.1992H138.332ZM154.451 15.1592H159.783V8.43262H163.823V15.1592H171.001V19.1992H163.823V32.96H171.001V37H163.823C163.276 37 162.757 36.8975 162.265 36.6924C161.772 36.4736 161.342 36.1865 160.973 35.8311C160.604 35.4619 160.31 35.0312 160.091 34.5391C159.886 34.0469 159.783 33.5205 159.783 32.96V19.1992H154.451V15.1592ZM196.226 28.1406H181.768V32.96H196.226V37H181.768C181.221 37 180.701 36.8975 180.209 36.6924C179.717 36.4736 179.286 36.1865 178.917 35.8311C178.562 35.4619 178.274 35.0312 178.056 34.5391C177.851 34.0469 177.748 33.5205 177.748 32.96V19.1992C177.748 18.6387 177.851 18.1123 178.056 17.6201C178.274 17.1279 178.562 16.7041 178.917 16.3486C179.286 15.9795 179.717 15.6924 180.209 15.4873C180.701 15.2686 181.221 15.1592 181.768 15.1592H192.186C192.746 15.1592 193.272 15.2686 193.765 15.4873C194.257 15.6924 194.681 15.9795 195.036 16.3486C195.405 16.7041 195.692 17.1279 195.897 17.6201C196.116 18.1123 196.226 18.6387 196.226 19.1992V28.1406ZM181.768 19.1992V24.1006H192.186V19.1992H181.768ZM222.291 37H218.251V19.1992H206.992V37H202.973V15.1592H206.992V19.0146C207.02 18.4814 207.143 17.9824 207.361 17.5176C207.58 17.0391 207.867 16.6289 208.223 16.2871C208.592 15.9316 209.016 15.6582 209.494 15.4668C209.973 15.2617 210.485 15.1592 211.032 15.1592H218.251C218.812 15.1592 219.338 15.2686 219.83 15.4873C220.322 15.6924 220.746 15.9795 221.102 16.3486C221.471 16.7041 221.758 17.1279 221.963 17.6201C222.182 18.1123 222.291 18.6387 222.291 19.1992V37Z" fill="black"/>
</svg>
